<svg xmlns="http://www.w3.org/2000/svg"><symbol id="twitter" viewBox="0 0 144 144"><path d="M73.4 12.9A59.1 59.1 0 1 1 14.2 72a59.2 59.2 0 0 1 59.2-59.1zm0-11.9a71 71 0 1 0 70.9 71A71 71 0 0 0 73.4 1zm38.4 51.9a26.1 26.1 0 0 1-8.4 2.3 13.8 13.8 0 0 0 6.4-8 27 27 0 0 1-9.2 3.5A14.6 14.6 0 0 0 75.8 64a41.3 41.3 0 0 1-30-15.2 14.5 14.5 0 0 0 4.5 19.4 14.8 14.8 0 0 1-6.6-1.8 14.6 14.6 0 0 0 11.7 14.5 16.2 16.2 0 0 1-6.6.2 14.5 14.5 0 0 0 13.6 10.1 29.3 29.3 0 0 1-21.6 6.1 41.7 41.7 0 0 0 22.4 6.5c27 0 42.3-22.8 41.3-43.3a27.8 27.8 0 0 0 7.3-7.6z"/></symbol><symbol id="profile" viewBox="0 0 144 144"><path d="M72 14.5a30 30 0 1 1-30 30 30.1 30.1 0 0 1 30-30zm0-12a42 42 0 1 0 42 42 42 42 0 0 0-42-42zm27.7 69.4a45.9 45.9 0 0 1-8.7 7.8c12.7 9.4 26 30.2 29.9 42.8 1.1 3.4-1.1 7-4.3 7H27.3c-3.1 0-5.3-3.5-4.3-6.9 3.8-12.8 17.3-33.5 30.2-42.8a50.1 50.1 0 0 1-8.7-7.9c-15.3 12.6-29.3 37.3-33 52.4-2.1 8.7 3.6 17.2 11.5 17.2h98c7.9 0 13.6-8.6 11.4-17.3-3.7-15-17.7-39.7-32.7-52.3z"/></symbol><symbol id="heart" viewBox="0 0 144 144"><path stroke="#000" stroke-miterlimit="10" stroke-width="2.23" d="M38 27c13.5 0 22.6 13.6 28.4 22.8a6.6 6.6 0 0 0 11.2 0c5.7-9.2 14.8-22.7 28.4-22.7s25.4 7.8 25.4 24.8S113 88.7 89.5 112a25 25 0 0 1-35 0C31 88.7 12.6 68.4 12.6 51.9S24.3 27 38 27zm.1-11.8C19.2 15.2.8 28.1.8 51.9c0 21.7 20.2 43.7 47.3 70.4a34 34 0 0 0 47.8 0c27.1-26.7 47.3-48.7 47.3-70.4 0-23.8-18.4-36.7-37.2-36.7-12.5 0-25.2 8.9-32.9 20.8a1.3 1.3 0 0 1-2.2 0c-7.7-11.9-20.4-20.8-32.8-20.8z"/></symbol><symbol id="card" viewBox="0 0 144 144"><path d="M132 21.9H12a12 12 0 0 0-12 12v72a12 12 0 0 0 12 12h120a12 12 0 0 0 12-12v-72a12 12 0 0 0-12-12zm0 81a2.9 2.9 0 0 1-3 3H15a2.9 2.9 0 0 1-3-3v-39h120zm0-57H12v-9a3 3 0 0 1 3-3h114a3 3 0 0 1 3 3zm-57 36H27a2.9 2.9 0 0 1-3-3 3 3 0 0 1 3-3h48a3 3 0 0 1 3 3 2.9 2.9 0 0 1-3 3zm-18 12H27a2.9 2.9 0 0 1-3-3 3 3 0 0 1 3-3h30a3 3 0 0 1 3 3 2.9 2.9 0 0 1-3 3zm60-12h-12a2.9 2.9 0 0 1-3-3 3 3 0 0 1 3-3h12a3 3 0 0 1 3 3 2.9 2.9 0 0 1-3 3z"/></symbol><symbol id="search" viewBox="0 0 144 144"><path d="M135.8 122.8l-30.2-30.2A57.4 57.4 0 0 0 116.5 53a58.3 58.3 0 1 0-25.2 53.6l30.4 30.3a10 10 0 0 0 14.1 0 10 10 0 0 0 0-14.1zM15.2 58.4a43.2 43.2 0 1 1 43.2 43.2 43.3 43.3 0 0 1-43.2-43.2z"/></symbol><symbol id="left-arrow" viewBox="0 0 144 144"><path d="M76 131.9a60 60 0 1 1 55.9-56.1A60.2 60.2 0 0 1 76 131.9zM69.8 144A72.1 72.1 0 0 0 144 69.5C142.7 31.8 111.9 1.2 74.2 0A72.1 72.1 0 0 0 0 74.5c1.3 37.7 32.1 68.3 69.8 69.5zm-8.3-75.4l26-26a7.5 7.5 0 0 0-.1-10.6 7.4 7.4 0 0 0-10.5.1L45.5 63.7a7.1 7.1 0 0 0 0 9.9L77 105.2a7.4 7.4 0 0 0 10.5 0 7.5 7.5 0 0 0 .1-10.6z"/></symbol><symbol id="right-arrow" viewBox="0 0 144 144"><path d="M68.1 12.1a60 60 0 1 1-56 56 60.2 60.2 0 0 1 56-56zM74.4 0A72 72 0 1 0 144 69.6 72.1 72.1 0 0 0 74.4 0zm8.1 75.4l-26 26a7.5 7.5 0 0 0 0 10.6 7.4 7.4 0 0 0 10.5-.1l31.5-31.6a7.1 7.1 0 0 0 0-9.9L67 38.8a7.4 7.4 0 0 0-10.5 0 7.4 7.4 0 0 0 0 10.5z"/></symbol><symbol id="instagram" viewBox="0 0 144 144"><path d="M72 13.6a60.1 60.1 0 1 1-60 60 60 60 0 0 1 60-60zm0-12a72.1 72.1 0 1 0 72.1 72A72 72 0 0 0 72 1.6zm0 42.5c9.6 0 10.8 0 14.6.2 9.7.5 14.3 5.1 14.7 14.8.2 3.8.2 4.9.2 14.5s0 10.8-.2 14.6c-.4 9.7-5 14.3-14.7 14.8-3.8.1-5 .2-14.6.2s-10.8-.1-14.6-.2c-9.7-.5-14.3-5.1-14.7-14.8-.2-3.8-.2-4.9-.2-14.6s0-10.7.2-14.5c.4-9.7 5-14.3 14.7-14.8 3.8-.2 5-.2 14.6-.2zm0-6.5c-9.8 0-11 .1-14.9.2-13 .6-20.3 7.9-20.9 21-.2 3.8-.2 5.1-.2 14.8s0 11.1.2 14.9c.6 13.1 7.9 20.4 20.9 21 3.9.1 5.1.2 14.9.2s11-.1 14.9-.2c13-.6 20.3-7.9 20.9-21 .2-3.8.2-5.1.2-14.9s0-11-.2-14.8c-.6-13.1-7.8-20.4-20.9-21-3.9-.1-5.1-.2-14.9-.2zm0 17.5a18.5 18.5 0 1 0 18.5 18.5A18.5 18.5 0 0 0 72 55.1zm0 30.6a12.1 12.1 0 1 1 12-12.1 12.1 12.1 0 0 1-12 12.1zm19.2-35.6a4.3 4.3 0 1 0 0 8.6 4.3 4.3 0 1 0 0-8.6z"/></symbol><symbol id="bag" viewBox="0 0 144 144"><path d="M98.1 39.9h-1.2V22.5c0-13.5-10.5-18.8-24-18.6s-24 4.9-24 18v18h-1.2a25.8 25.8 0 0 0-25.5 22.7l-5.9 50.7a25.6 25.6 0 0 0 25.4 28.6h62.4a25.6 25.6 0 0 0 25.4-28.6l-5.9-50.7a25.8 25.8 0 0 0-25.5-22.7zm-39.8-18c0-9.3 6.3-10.6 18.6-10.6 7.8 0 10.9 5.4 10.9 12.1v16.5H58.3zm-29.9 91.3l5.6-48a15 15 0 0 1 14.9-13.3v13a3.1 3.1 0 0 0 2.4 3.1c1.9.4 6.9.2 7-3V51.9h29.5v13c0 3 4.1 2.8 5.5 3.1a3 3 0 0 0 3.6-3V51.9a15 15 0 0 1 14.9 13.3l5.6 48a14.9 14.9 0 0 1-14.9 16.7H43.3a14.9 14.9 0 0 1-14.9-16.7z"/></symbol><symbol id="check" viewBox="0 0 144 144"><path d="M72 12a60 60 0 1 1-60 60 60 60 0 0 1 60-60zm0-12a72 72 0 1 0 72 72A72 72 0 0 0 72 0zm24.6 46.2L62.7 81 50.4 69.3a9.6 9.6 0 0 0-13.3.2 9.6 9.6 0 0 0 .1 13.6l17.1 16.5a11.7 11.7 0 0 0 16.5-.2l39.3-40a9.4 9.4 0 0 0-.1-13.3 9.5 9.5 0 0 0-13.4.1z"/></symbol><symbol id="facebook" viewBox="0 0 144 144"><path d="M72 11.9a60 60 0 1 1-60 60 60 60 0 0 1 60-60zm0-12a72 72 0 1 0 72 72 72 72 0 0 0-72-72zm-12 60H48v12h12v36h18v-36h10.9l1.1-12H78v-5c0-2.9.6-4 3.3-4H90v-15H75.6C64.8 35.9 60 40.6 60 49.7z"/></symbol></svg>