<?xml version="1.0" encoding="utf-8"?>
<!-- Generator: Adobe Illustrator 24.0.1, SVG Export Plug-In . SVG Version: 6.00 Build 0)  -->
<svg version="1.1" id="Layer_1" xmlns="http://www.w3.org/2000/svg" xmlns:xlink="http://www.w3.org/1999/xlink" x="0px" y="0px"
	 viewBox="0 0 187.1 187.1" style="enable-background:new 0 0 187.1 187.1;" xml:space="preserve">
<path d="M93.5,0C42,0,0,42,0,93.5c0,51.6,42,93.5,93.5,93.5c51.6,0,93.5-42,93.5-93.5C187.1,42,145.1,0,93.5,0z M93.5,178.1
	C46.9,178.1,9,140.2,9,93.5C9,46.9,46.9,9,93.5,9c46.6,0,84.5,37.9,84.5,84.5C178.1,140.2,140.2,178.1,93.5,178.1z"/>
<g>
	<path d="M80.7,75.4c1,3.3,1,6.9,0.1,10.4c-0.8,3.5-2.6,6.9-4.9,9.7c-2.4,2.9-5.5,5.2-8.9,6.8c-0.9,0.4-1.8,0.7-2.7,1.1
		c-0.9,0.3-1.8,0.6-2.8,0.8c-0.9,0.2-1.9,0.3-2.8,0.5l-2.9,0.2l-2.9-0.2c-1-0.1-1.9-0.3-2.8-0.5c-0.9-0.2-1.9-0.5-2.8-0.8
		c-0.9-0.3-1.8-0.7-2.7-1.1c-3.5-1.6-6.6-4-8.9-6.8c-2.4-2.9-4.1-6.2-4.9-9.7c-0.8-3.5-0.8-7.1,0.1-10.4c1.9,6.5,5.3,11.6,9.8,15.1
		c4.4,3.5,9.8,5.3,15.1,5.3c5.4,0,10.7-1.8,15.1-5.3C75.4,87,78.8,81.9,80.7,75.4z"/>
</g>
<g>
	<path d="M158.9,75.4c1,3.3,1,6.9,0.1,10.4c-0.8,3.5-2.6,6.9-4.9,9.7c-2.4,2.9-5.5,5.2-8.9,6.8c-0.9,0.4-1.8,0.7-2.7,1.1
		c-0.9,0.3-1.8,0.6-2.8,0.8c-0.9,0.2-1.9,0.3-2.8,0.5l-2.9,0.2l-2.9-0.2c-1-0.1-1.9-0.3-2.8-0.5c-0.9-0.2-1.9-0.5-2.8-0.8
		c-0.9-0.3-1.8-0.7-2.7-1.1c-3.5-1.6-6.6-4-8.9-6.8c-2.4-2.9-4.1-6.2-4.9-9.7c-0.8-3.5-0.8-7.1,0.1-10.4c1.9,6.5,5.3,11.6,9.8,15.1
		c4.4,3.5,9.8,5.3,15.1,5.3c5.4,0,10.7-1.8,15.1-5.3C153.5,87,157,81.9,158.9,75.4z"/>
</g>
<g>
	<path d="M141.7,120.2c0.5,2.6,0.3,5.4-0.4,8.1c-0.7,2.7-2,5.2-3.6,7.6c-3.2,4.7-7.6,8.3-12.4,11.1c-4.8,2.8-10,4.8-15.4,6.1
		c-2.7,0.7-5.4,1.1-8.1,1.5c-2.7,0.3-5.5,0.5-8.2,0.5c-2.8,0-5.5-0.2-8.2-0.5c-2.7-0.3-5.5-0.8-8.1-1.5c-5.4-1.3-10.6-3.3-15.4-6.1
		c-4.8-2.8-9.2-6.5-12.4-11.1c-1.6-2.3-2.8-4.9-3.6-7.6c-0.7-2.7-0.8-5.5-0.4-8.1c0.5,2.6,1.4,5,2.7,7.1c1.3,2.1,2.8,4,4.6,5.7
		c3.5,3.3,7.8,5.8,12.2,7.7c4.5,1.9,9.2,3.2,14,4.1c2.4,0.4,4.8,0.8,7.3,1c2.4,0.2,4.9,0.3,7.3,0.3c4.9,0,9.8-0.4,14.6-1.3
		c4.8-0.9,9.5-2.2,14-4.1c4.5-1.9,8.7-4.4,12.2-7.7c1.8-1.7,3.3-3.5,4.6-5.7C140.2,125.2,141.2,122.8,141.7,120.2z"/>
</g>
</svg>
